<svg width="24" height="24" viewBox="0 0 24 24" fill="none" xmlns="http://www.w3.org/2000/svg">
<path d="M9 18.9282C10.2162 19.6304 11.5957 20 13 20C14.4043 20 15.7838 19.6304 17 18.9282C18.2162 18.2261 19.2261 17.2162 19.9282 16C20.6304 14.7838 21 13.4043 21 12C21 10.5957 20.6304 9.21615 19.9282 8C19.2261 6.78385 18.2162 5.77394 17 5.0718C15.7838 4.36965 14.4043 4 13 4C11.5957 4 10.2162 4.36965 9 5.0718M6 7L2 12M2 12L6 17M2 12H11" stroke="#377CBA" stroke-width="1.7" stroke-linecap="round"/>
</svg>
