<svg width="26" height="26" viewBox="0 0 26 26" fill="none" xmlns="http://www.w3.org/2000/svg">
<path d="M13.1372 8C10.1216 8 8.83922 10.2986 8.83922 12.7986V15.0833C8.83922 17.1667 7.78098 18.2108 7.22165 18.9113C6.93113 19.2752 7.18506 19.8819 7.65808 19.8819H18.6163C19.0893 19.8819 19.3432 19.2752 19.0527 18.9113C18.4934 18.2108 17.3883 17.1667 17.3883 15.0833V12.7986C17.3883 10.2986 16.1528 8 13.1372 8ZM13.1372 8V5.5M15.6784 20.5C15.6784 21.163 15.4082 21.7989 14.9273 22.2678C14.4463 22.7366 13.7939 23 13.1137 23C12.4335 23 11.7812 22.7366 11.3002 22.2678C10.8192 21.7989 10.549 21.163 10.549 20.5M9.23558 5.88675C7.76876 6.71225 6.62236 7.98648 5.9742 9.51182C5.32603 11.0371 5.21231 12.7283 5.65068 14.3231M7.52578 3C5.40703 4.19239 3.75113 6.03295 2.81489 8.2362C1.87865 10.4395 1.76315 13.4117 2.39635 15.7153M16.7644 5.88675C18.2312 6.71225 19.3776 7.98648 20.0258 9.51182C20.674 11.0371 20.7877 12.7283 20.3493 14.3231M18.4742 3C20.593 4.19239 22.2489 6.03295 23.1851 8.2362C24.1213 10.4395 24.2368 13.4117 23.6036 15.7153" stroke="#A15050" stroke-width="1.7" stroke-linecap="round" stroke-linejoin="round"/>
</svg>
