<svg width="24" height="24" viewBox="0 0 24 24" fill="none" xmlns="http://www.w3.org/2000/svg">
<path d="M14.1361 3.36144L13.2904 3.44602V3.44602L14.1361 3.36144ZM16.5979 4.38113L17.1361 5.03899L17.1361 5.03899L16.5979 4.38113ZM18.6243 4.4822L18.0232 5.08324L18.0232 5.08324L18.6243 4.4822ZM19.5178 5.37567L20.1188 4.77463L20.1188 4.77463L19.5178 5.37567ZM19.6188 7.4021L18.961 6.86385V6.86385L19.6188 7.4021ZM20.6385 9.86385L20.7231 9.01807H20.7231L20.6385 9.86385ZM20.6386 14.1361L20.5541 13.2904L20.6386 14.1361ZM19.619 16.5976L20.2768 16.0593V16.0593L19.619 16.5976ZM19.5179 18.6238L20.119 19.2248V19.2248L19.5179 18.6238ZM18.6243 19.5174L18.0233 18.9163L18.0233 18.9163L18.6243 19.5174ZM16.5979 19.6184L17.1362 18.9606L16.5979 19.6184ZM14.1362 20.6383L14.9819 20.7229L14.1362 20.6383ZM9.86385 20.6385L9.01807 20.7231L9.86385 20.6385ZM7.40208 19.6189L6.86382 18.961H6.86382L7.40208 19.6189ZM5.37561 19.5178L5.97665 18.9167L5.97665 18.9167L5.37561 19.5178ZM4.48217 18.6243L3.88113 19.2254L3.88113 19.2254L4.48217 18.6243ZM4.3811 16.5979L5.03897 17.1361L4.3811 16.5979ZM3.36143 14.1361L3.27685 14.9819H3.27685L3.36143 14.1361ZM3.36155 9.86384L3.44613 10.7096H3.44613L3.36155 9.86384ZM4.38128 7.40182L3.72341 7.94007L4.38128 7.40182ZM4.48233 5.37509L5.08337 5.97613V5.97613L4.48233 5.37509ZM5.37565 4.48177L4.77461 3.88073L5.37565 4.48177ZM7.4022 4.38076L7.94045 3.7229H7.94045L7.4022 4.38076ZM9.86387 3.36131L10.7097 3.44588V3.44588L9.86387 3.36131ZM14.9819 3.27686C14.8612 2.06947 13.8452 1.15 12.6318 1.15V2.85C12.9718 2.85 13.2565 3.10766 13.2904 3.44602L14.9819 3.27686ZM16.0596 3.72327C15.6509 4.05764 15.0345 3.80229 14.9819 3.27686L13.2904 3.44602C13.4779 5.32099 15.6777 6.23223 17.1361 5.03899L16.0596 3.72327ZM19.2253 3.88116C18.3673 3.02315 16.9987 2.95489 16.0596 3.72327L17.1361 5.03899C17.3993 4.82367 17.7828 4.8428 18.0232 5.08324L19.2253 3.88116ZM20.1188 4.77463L19.2253 3.88116L18.0232 5.08324L18.9167 5.97671L20.1188 4.77463ZM20.2767 7.94036C21.0451 7.00122 20.9768 5.63264 20.1188 4.77463L18.9167 5.97671C19.1572 6.21715 19.1763 6.60067 18.961 6.86385L20.2767 7.94036ZM20.7231 9.01807C20.1977 8.96553 19.9423 8.34903 20.2767 7.94035L18.961 6.86385C17.7677 8.32227 18.679 10.5221 20.554 10.7096L20.7231 9.01807ZM22.85 11.3682C22.85 10.1548 21.9305 9.13881 20.7231 9.01807L20.554 10.7096C20.8923 10.7435 21.15 11.0282 21.15 11.3682H22.85ZM22.85 12.6319V11.3682H21.15V12.6319H22.85ZM20.7232 14.9819C21.9305 14.8612 22.85 13.8453 22.85 12.6319H21.15C21.15 12.9718 20.8924 13.2565 20.5541 13.2904L20.7232 14.9819ZM20.2768 16.0593C19.9426 15.6508 20.1978 15.0345 20.7232 14.9819L20.5541 13.2904C18.6793 13.4778 17.7679 15.6775 18.9611 17.1358L20.2768 16.0593ZM20.119 19.2248C20.9769 18.3669 21.0452 16.9984 20.2768 16.0593L18.9611 17.1358C19.1764 17.3989 19.1573 17.7824 18.9169 18.0227L20.119 19.2248ZM19.2254 20.1184L20.119 19.2248L18.9169 18.0227L18.0233 18.9163L19.2254 20.1184ZM16.0597 20.2763C16.9988 21.0447 18.3674 20.9764 19.2254 20.1184L18.0233 18.9163C17.7829 19.1568 17.3993 19.1759 17.1362 18.9606L16.0597 20.2763ZM14.9819 20.7229C15.0345 20.1973 15.6511 19.942 16.0597 20.2763L17.1362 18.9606C15.6776 17.7672 13.4779 18.679 13.2904 20.5537L14.9819 20.7229ZM12.6316 22.85C13.8452 22.85 14.8612 21.9303 14.9819 20.7229L13.2904 20.5537C13.2565 20.8922 12.9717 21.15 12.6316 21.15V22.85ZM11.3682 22.85H12.6316V21.15H11.3682V22.85ZM9.01807 20.7231C9.13881 21.9305 10.1548 22.85 11.3682 22.85V21.15C11.0282 21.15 10.7435 20.8923 10.7096 20.554L9.01807 20.7231ZM7.94033 20.2767C8.34904 19.9423 8.96553 20.1977 9.01807 20.7231L10.7096 20.554C10.5221 18.679 8.32222 17.7678 6.86382 18.961L7.94033 20.2767ZM4.77457 20.1188C5.63259 20.9769 7.00119 21.0451 7.94033 20.2767L6.86382 18.961C6.60064 19.1763 6.2171 19.1572 5.97665 18.9167L4.77457 20.1188ZM3.88113 19.2254L4.77457 20.1188L5.97665 18.9167L5.08321 18.0233L3.88113 19.2254ZM3.72324 16.0596C2.95486 16.9988 3.0231 18.3674 3.88113 19.2254L5.08321 18.0233C4.84277 17.7829 4.82363 17.3993 5.03897 17.1361L3.72324 16.0596ZM3.27685 14.9819C3.80226 15.0345 4.05763 15.6509 3.72324 16.0596L5.03897 17.1361C6.23219 15.6778 5.32101 13.4779 3.44601 13.2904L3.27685 14.9819ZM1.15 12.6318C1.15 13.8452 2.06946 14.8612 3.27685 14.9819L3.44601 13.2904C3.10766 13.2565 2.85 12.9718 2.85 12.6318H1.15ZM1.15 11.3683V12.6318H2.85V11.3683H1.15ZM3.27698 9.01806C2.06951 9.13881 1.15 10.1549 1.15 11.3683H2.85C2.85 11.0282 3.10771 10.7435 3.44613 10.7096L3.27698 9.01806ZM3.72341 7.94007C4.05792 8.34891 3.80243 8.96552 3.27698 9.01806L3.44613 10.7096C5.32131 10.5221 6.23239 8.32198 5.03914 6.86357L3.72341 7.94007ZM3.88129 4.77405C3.02319 5.63216 2.95499 7.00088 3.72341 7.94007L5.03914 6.86357C4.82373 6.60029 4.84288 6.21662 5.08337 5.97613L3.88129 4.77405ZM4.77461 3.88073L3.88129 4.77405L5.08337 5.97613L5.97669 5.08281L4.77461 3.88073ZM7.94045 3.7229C7.00136 2.95456 5.63269 3.02265 4.77461 3.88073L5.97669 5.08281C6.21709 4.84241 6.6007 4.82325 6.86395 5.03863L7.94045 3.7229ZM9.01809 3.27673C8.96558 3.80183 8.34921 4.05734 7.94045 3.7229L6.86394 5.03863C8.32209 6.23165 10.5221 5.32097 10.7097 3.44588L9.01809 3.27673ZM11.3681 1.15C10.1548 1.15 9.13882 2.06941 9.01809 3.27673L10.7097 3.44588C10.7435 3.10761 11.0281 2.85 11.3681 2.85V1.15ZM12.6318 1.15H11.3681V2.85H12.6318V1.15ZM15.15 12C15.15 13.7397 13.7397 15.15 12 15.15V16.85C14.6786 16.85 16.85 14.6786 16.85 12H15.15ZM12 8.85C13.7397 8.85 15.15 10.2603 15.15 12H16.85C16.85 9.32142 14.6786 7.15 12 7.15V8.85ZM8.85 12C8.85 10.2603 10.2603 8.85 12 8.85V7.15C9.32142 7.15 7.15 9.32142 7.15 12H8.85ZM12 15.15C10.2603 15.15 8.85 13.7397 8.85 12H7.15C7.15 14.6786 9.32142 16.85 12 16.85V15.15Z" fill="#377CBA"/>
</svg>
