<svg width="118" height="118" viewBox="0 0 118 118" fill="none" xmlns="http://www.w3.org/2000/svg">
<rect width="118" height="118" rx="10" fill="#FFDEDE"/>
<path d="M31.6469 13.9985C31.9213 13.3115 32.3101 12.8077 32.8131 12.487C33.3619 12.1664 33.9335 12.0061 34.5281 12.0061C35.397 12.0061 36.1515 12.3038 36.7918 12.8993C37.4778 13.4947 37.8208 14.2046 37.8208 15.0291C37.8208 15.4871 37.7293 15.9223 37.5464 16.3345L18.4761 56.8702C18.2017 57.5114 17.7901 57.9923 17.2413 58.3129C16.7383 58.6794 16.1895 58.8626 15.595 58.8626C14.7718 58.8626 14.0172 58.5878 13.3313 58.0381C12.691 57.4885 12.3709 56.8014 12.3709 55.977C12.3709 55.6106 12.4852 55.1525 12.7139 54.6029L17.4471 44.5033L4.20771 16.3345C4.02478 15.9681 3.93332 15.5558 3.93332 15.0978C3.93332 14.2275 4.29918 13.4947 5.03089 12.8993C5.7626 12.3038 6.58578 12.0061 7.50042 12.0061C8.87238 12.0061 9.85562 12.6473 10.4501 13.9298L21.0828 37.5642L31.6469 13.9985Z" fill="#D29191"/>
<path d="M56.1841 46.6332C52.8914 46.6332 49.9874 45.9232 47.4722 44.5033C45.0027 43.0834 43.0819 41.0681 41.7099 38.4573C40.3837 35.8008 39.7206 32.732 39.7206 29.2509C39.7206 25.7241 40.3837 22.6553 41.7099 20.0445C43.0819 17.388 45.0027 15.3497 47.4722 13.9298C49.9874 12.5099 52.8914 11.8 56.1841 11.8C59.4768 11.8 62.358 12.5099 64.8275 13.9298C67.3428 15.3497 69.2635 17.388 70.5897 20.0445C71.9617 22.6553 72.6477 25.7241 72.6477 29.2509C72.6477 32.732 71.9617 35.8008 70.5897 38.4573C69.2635 41.0681 67.3428 43.0834 64.8275 44.5033C62.358 45.9232 59.4768 46.6332 56.1841 46.6332ZM56.1841 41.1368C59.2482 41.1368 61.5805 40.1292 63.1811 38.1138C64.8275 36.0985 65.6507 33.1442 65.6507 29.2509C65.6507 25.4035 64.8275 22.4721 63.1811 20.4568C61.5348 18.3956 59.2025 17.3651 56.1841 17.3651C53.1658 17.3651 50.8335 18.3956 49.1871 20.4568C47.5408 22.4721 46.7176 25.4035 46.7176 29.2509C46.7176 33.1442 47.5179 36.0985 49.1185 38.1138C50.7649 40.1292 53.1201 41.1368 56.1841 41.1368Z" fill="#D29191"/>
<path d="M106.703 11.9374C107.755 11.9374 108.578 12.258 109.173 12.8993C109.813 13.4947 110.133 14.2962 110.133 15.3039V43.4728C110.133 48.6027 108.761 52.4731 106.017 55.0838C103.319 57.6946 99.3177 59 94.0128 59C89.0737 59 84.9578 58.061 81.6651 56.1831C79.973 55.2212 79.127 54.0762 79.127 52.7479C79.127 51.9692 79.3328 51.328 79.7444 50.8242C80.2017 50.3203 80.7505 50.0684 81.3907 50.0684C81.9852 50.0684 82.9227 50.4119 84.2032 51.099C85.8496 51.8776 87.3816 52.4731 88.7993 52.8853C90.217 53.3433 91.9091 53.5723 93.8756 53.5723C100.187 53.5723 103.342 50.389 103.342 44.0224V38.7322C102.382 40.7475 100.918 42.3277 98.9518 43.4728C96.9854 44.572 94.6988 45.1217 92.092 45.1217C89.1652 45.1217 86.5584 44.4346 84.2718 43.0605C81.9852 41.6865 80.2017 39.7398 78.9212 37.2207C77.6864 34.7015 77.069 31.793 77.069 28.4952C77.069 25.1974 77.7093 22.2889 78.9898 19.7697C80.2703 17.2505 82.031 15.3039 84.2718 13.9298C86.5584 12.5099 89.1652 11.8 92.092 11.8C94.653 11.8 96.8939 12.3496 98.8146 13.4489C100.781 14.5482 102.267 16.1055 103.274 18.1208V15.2352C103.274 14.2275 103.571 13.426 104.165 12.8306C104.806 12.2351 105.652 11.9374 106.703 11.9374ZM93.7384 39.6253C96.711 39.6253 99.0433 38.6406 100.735 36.671C102.427 34.7015 103.274 31.9762 103.274 28.4952C103.274 25.06 102.427 22.3576 100.735 20.388C99.089 18.3727 96.7567 17.3651 93.7384 17.3651C90.7201 17.3651 88.342 18.3498 86.6042 20.3193C84.9121 22.2889 84.066 25.0142 84.066 28.4952C84.066 31.9762 84.935 34.7015 86.6728 36.671C88.4106 38.6406 90.7658 39.6253 93.7384 39.6253Z" fill="#D29191"/>
<path d="M23.6099 106.045C22.4759 106.045 21.5223 105.735 20.7491 105.114C20.0275 104.493 19.6667 103.562 19.6667 102.321V70.8233C19.6667 69.582 20.0275 68.651 20.7491 68.0304C21.5223 67.358 22.4759 67.0219 23.6099 67.0219C24.7439 67.0219 25.6716 67.358 26.3933 68.0304C27.1149 68.651 27.4757 69.582 27.4757 70.8233V102.321C27.4757 103.562 27.1149 104.493 26.3933 105.114C25.6716 105.735 24.7439 106.045 23.6099 106.045Z" fill="#D29191"/>
<path d="M51.9022 106.2C48.2425 106.2 45.021 105.398 42.2375 103.795C39.5056 102.192 37.3665 99.916 35.8202 96.9679C34.3254 94.0199 33.578 90.6063 33.578 86.7273C33.578 82.7966 34.3512 79.3313 35.8975 76.3315C37.4954 73.3317 39.7118 71.0043 42.5468 69.3493C45.3818 67.6942 48.6291 66.8667 52.2888 66.8667C54.2475 66.8667 56.2062 67.1512 58.1649 67.7201C60.1752 68.289 61.9534 69.0648 63.4998 70.0475C65.1492 71.1853 65.974 72.5042 65.974 74.0041C65.974 74.8834 65.742 75.6333 65.2781 76.2539C64.8142 76.8229 64.2214 77.1073 63.4998 77.1073C63.0359 77.1073 62.572 77.0039 62.1081 76.797C61.6442 76.5384 61.0514 76.1764 60.3298 75.7109C59.0412 74.8834 57.8298 74.2627 56.6959 73.8489C55.6134 73.3835 54.299 73.1507 52.7527 73.1507C49.2476 73.1507 46.5157 74.3403 44.557 76.7194C42.6499 79.0986 41.6963 82.4087 41.6963 86.6497C41.6963 90.8908 42.6499 94.175 44.557 96.5025C46.4642 98.7782 49.1703 99.916 52.6754 99.916C54.2217 99.916 55.5877 99.6833 56.7732 99.2178C57.9587 98.7523 59.17 98.1316 60.4071 97.3558C60.9741 96.9938 61.5411 96.6835 62.1081 96.4249C62.6751 96.1663 63.1905 96.037 63.6544 96.037C64.3761 96.037 64.9688 96.3473 65.4327 96.9679C65.8966 97.5369 66.1286 98.261 66.1286 99.1402C66.1286 99.8643 65.9224 100.537 65.5101 101.157C65.1492 101.726 64.5049 102.321 63.5771 102.942C62.0308 103.976 60.2267 104.778 58.1649 105.347C56.1031 105.916 54.0155 106.2 51.9022 106.2Z" fill="#D29191"/>
<path d="M87.4217 66.8667C92.4215 66.8667 96.1328 68.1338 98.5554 70.6681C101.03 73.2024 102.267 77.0556 102.267 82.2276V102.321C102.267 103.511 101.932 104.442 101.262 105.114C100.591 105.735 99.6636 106.045 98.4781 106.045C97.3441 106.045 96.4421 105.709 95.772 105.036C95.1019 104.364 94.7668 103.459 94.7668 102.321V99.4505C93.7875 101.623 92.3185 103.304 90.3597 104.493C88.4526 105.631 86.2104 106.2 83.6332 106.2C81.159 106.2 78.891 105.709 76.8292 104.726C74.819 103.692 73.2211 102.295 72.0355 100.537C70.85 98.7782 70.2572 96.7869 70.2572 94.5629C70.2057 91.77 70.9015 89.5978 72.3448 88.0462C73.788 86.4429 76.1333 85.305 79.3807 84.6326C82.628 83.9086 87.1382 83.5465 92.9112 83.5465H94.6895V81.2967C94.6895 78.4003 94.0968 76.3057 92.9112 75.0127C91.7257 73.7196 89.8186 73.0731 87.1898 73.0731C85.3857 73.0731 83.6847 73.3059 82.0868 73.7714C80.4889 74.2368 78.7364 74.9092 76.8292 75.7885C75.4375 76.5643 74.4581 76.9522 73.8911 76.9522C73.118 76.9522 72.4737 76.6677 71.9582 76.0988C71.4943 75.5299 71.2624 74.8058 71.2624 73.9265C71.2624 73.1507 71.4685 72.4784 71.8809 71.9094C72.3448 71.2888 73.0664 70.694 74.0458 70.1251C75.8498 69.1424 77.9632 68.3666 80.3858 67.7977C82.8084 67.177 85.1537 66.8667 87.4217 66.8667ZM85.0249 100.381C87.8598 100.381 90.1794 99.4247 91.9834 97.511C93.7875 95.5456 94.6895 93.0372 94.6895 89.9857V87.9686H93.2978C89.2773 87.9686 86.1846 88.1496 84.0197 88.5117C81.8548 88.8737 80.3085 89.4944 79.3807 90.3736C78.4529 91.2011 77.989 92.4166 77.989 94.0199C77.989 95.8818 78.6591 97.4076 79.9992 98.5971C81.3394 99.7867 83.0146 100.381 85.0249 100.381Z" fill="#D29191"/>
</svg>
