<svg width="24" height="25" viewBox="0 0 24 25" fill="none" xmlns="http://www.w3.org/2000/svg">
<path d="M23.318 10.3377C23.4591 11.1402 23.5252 11.9603 23.5252 12.776C23.5252 16.4268 22.2201 19.5132 19.9494 21.6032H19.9538C17.9652 23.4374 15.2359 24.5 11.9996 24.5C7.46255 24.5 3.3135 21.9427 1.27646 17.8906C-0.425485 14.5 -0.425488 10.5052 1.27646 7.11459C3.3135 3.05814 7.46255 0.500809 11.9996 0.500809C14.9802 0.465535 17.8594 1.58547 20.0287 3.62251L16.6028 7.04845C15.3638 5.86679 13.7104 5.22305 11.9996 5.2495C8.86908 5.2495 6.21034 7.3615 5.26236 10.2054C4.75971 11.6957 4.75971 13.3095 5.26236 14.7998H5.26677C6.21916 17.6393 8.87349 19.7513 12.004 19.7513C13.6222 19.7513 15.0111 19.3368 16.0869 18.6049H16.0825C17.3479 17.7672 18.2121 16.4488 18.4811 14.9585H11.9996V10.3377H23.318Z" fill="#377CBA"/>
</svg>
