<svg width="24" height="25" viewBox="0 0 24 25" fill="none" xmlns="http://www.w3.org/2000/svg">
<path d="M24 12.5C24 19.1274 18.6274 24.5 12 24.5C5.37258 24.5 0 19.1274 0 12.5C0 5.87258 5.37258 0.5 12 0.5C18.6274 0.5 24 5.87258 24 12.5ZM12.4301 9.35898C11.2629 9.84445 8.9302 10.8492 5.43195 12.3734C4.86389 12.5993 4.56632 12.8203 4.53923 13.0363C4.49345 13.4015 4.95077 13.5453 5.57354 13.7412C5.65825 13.7678 5.74602 13.7954 5.836 13.8247C6.4487 14.0238 7.27289 14.2568 7.70135 14.2661C8.09 14.2745 8.52379 14.1142 9.0027 13.7854C12.2712 11.5791 13.9584 10.4639 14.0644 10.4398C14.1391 10.4229 14.2427 10.4015 14.3128 10.4639C14.383 10.5263 14.3761 10.6444 14.3687 10.6761C14.3234 10.8692 12.5282 12.5381 11.5992 13.4018C11.3096 13.6711 11.1041 13.8621 11.0621 13.9057C10.9681 14.0034 10.8722 14.0958 10.78 14.1846C10.2108 14.7334 9.78397 15.1449 10.8037 15.8168C11.2937 16.1397 11.6858 16.4068 12.077 16.6732C12.5042 16.9641 12.9303 17.2543 13.4817 17.6157C13.6221 17.7078 13.7563 17.8034 13.8869 17.8966C14.3841 18.251 14.8308 18.5694 15.3826 18.5187C15.7033 18.4892 16.0345 18.1876 16.2027 17.2884C16.6003 15.1632 17.3817 10.5585 17.5623 8.66103C17.5781 8.49479 17.5582 8.28203 17.5422 8.18863C17.5262 8.09524 17.4928 7.96217 17.3714 7.86366C17.2277 7.747 17.0057 7.7224 16.9064 7.72414C16.4551 7.7321 15.7626 7.97288 12.4301 9.35898Z" fill="#377CBA"/>
</svg>
