<svg width="320" height="63" viewBox="0 0 320 63" fill="none" xmlns="http://www.w3.org/2000/svg">
<rect width="320" height="63" fill="white"/>
<path d="M98.5773 32.9316C98.692 32.6405 98.8543 32.427 99.0645 32.2911C99.2937 32.1553 99.5326 32.0873 99.7809 32.0873C100.144 32.0873 100.459 32.2135 100.727 32.4658C101.013 32.7181 101.156 33.0189 101.156 33.3683C101.156 33.5623 101.118 33.7467 101.042 33.9214L93.0752 51.0975C92.9606 51.3692 92.7887 51.573 92.5594 51.7089C92.3493 51.8641 92.12 51.9418 91.8716 51.9418C91.5278 51.9418 91.2125 51.8253 90.926 51.5924C90.6585 51.3595 90.5248 51.0684 90.5248 50.7191C90.5248 50.5638 90.5725 50.3697 90.6681 50.1368L92.6454 45.8574L87.1146 33.9214C87.0382 33.7661 87 33.5915 87 33.3974C87 33.0286 87.1528 32.7181 87.4585 32.4658C87.7642 32.2135 88.1081 32.0873 88.4902 32.0873C89.0633 32.0873 89.474 32.359 89.7224 32.9025L94.1642 42.917L98.5773 32.9316Z" fill="#D29191"/>
<path d="M108.828 46.7598C107.452 46.7598 106.239 46.459 105.188 45.8574C104.157 45.2557 103.354 44.4017 102.781 43.2955C102.227 42.1698 101.95 40.8695 101.95 39.3945C101.95 37.9 102.227 36.5997 102.781 35.4934C103.354 34.3678 104.157 33.5041 105.188 32.9025C106.239 32.3008 107.452 32 108.828 32C110.203 32 111.407 32.3008 112.438 32.9025C113.489 33.5041 114.292 34.3678 114.846 35.4934C115.419 36.5997 115.705 37.9 115.705 39.3945C115.705 40.8695 115.419 42.1698 114.846 43.2955C114.292 44.4017 113.489 45.2557 112.438 45.8574C111.407 46.459 110.203 46.7598 108.828 46.7598ZM108.828 44.4309C110.108 44.4309 111.082 44.0039 111.751 43.1499C112.438 42.296 112.782 41.0442 112.782 39.3945C112.782 37.7642 112.438 36.5221 111.751 35.6681C111.063 34.7948 110.089 34.3581 108.828 34.3581C107.567 34.3581 106.592 34.7948 105.905 35.6681C105.217 36.5221 104.873 37.7642 104.873 39.3945C104.873 41.0442 105.207 42.296 105.876 43.1499C106.564 44.0039 107.548 44.4309 108.828 44.4309Z" fill="#D29191"/>
<path d="M129.932 32.0582C130.371 32.0582 130.715 32.1941 130.964 32.4658C131.231 32.7181 131.365 33.0577 131.365 33.4847V45.4207C131.365 47.5944 130.792 49.2344 129.646 50.3406C128.518 51.4469 126.847 52 124.631 52C122.567 52 120.848 51.6021 119.472 50.8064C118.765 50.3988 118.412 49.9136 118.412 49.3508C118.412 49.0209 118.498 48.7492 118.67 48.5357C118.861 48.3222 119.09 48.2154 119.358 48.2154C119.606 48.2154 119.998 48.361 120.533 48.6521C121.22 48.982 121.86 49.2344 122.453 49.409C123.045 49.6031 123.752 49.7001 124.573 49.7001C127.21 49.7001 128.528 48.3513 128.528 45.6536V43.4119C128.127 44.2659 127.515 44.9355 126.694 45.4207C125.872 45.8865 124.917 46.1194 123.828 46.1194C122.605 46.1194 121.517 45.8282 120.561 45.246C119.606 44.6638 118.861 43.8389 118.326 42.7715C117.81 41.704 117.552 40.4716 117.552 39.0742C117.552 37.6769 117.82 36.4444 118.355 35.377C118.89 34.3096 119.625 33.4847 120.561 32.9025C121.517 32.3008 122.605 32 123.828 32C124.898 32 125.834 32.2329 126.637 32.6987C127.458 33.1645 128.079 33.8244 128.499 34.6783V33.4556C128.499 33.0286 128.623 32.689 128.872 32.4367C129.139 32.1844 129.493 32.0582 129.932 32.0582ZM124.516 43.7904C125.758 43.7904 126.732 43.3731 127.439 42.5386C128.146 41.704 128.499 40.5492 128.499 39.0742C128.499 37.6186 128.146 36.4736 127.439 35.639C126.751 34.7851 125.777 34.3581 124.516 34.3581C123.255 34.3581 122.262 34.7754 121.536 35.6099C120.829 36.4444 120.475 37.5992 120.475 39.0742C120.475 40.5492 120.838 41.704 121.564 42.5386C122.29 43.3731 123.274 43.7904 124.516 43.7904Z" fill="#D29191"/>
<path d="M136.605 46.7016C136.184 46.7016 135.831 46.5852 135.544 46.3523C135.277 46.1194 135.143 45.77 135.143 45.3042V33.4847C135.143 33.0189 135.277 32.6696 135.544 32.4367C135.831 32.1844 136.184 32.0582 136.605 32.0582C137.025 32.0582 137.369 32.1844 137.636 32.4367C137.904 32.6696 138.038 33.0189 138.038 33.4847V45.3042C138.038 45.77 137.904 46.1194 137.636 46.3523C137.369 46.5852 137.025 46.7016 136.605 46.7016Z" fill="#D29191"/>
<path d="M147.5 46.7598C146.143 46.7598 144.949 46.459 143.918 45.8574C142.905 45.2557 142.112 44.4017 141.539 43.2955C140.985 42.1892 140.708 40.9083 140.708 39.4527C140.708 37.9777 140.995 36.6773 141.568 35.5517C142.16 34.426 142.981 33.5526 144.032 32.9316C145.083 32.3105 146.287 32 147.643 32C148.369 32 149.095 32.1067 149.821 32.3202C150.566 32.5337 151.225 32.8248 151.798 33.1936C152.41 33.6206 152.715 34.1155 152.715 34.6783C152.715 35.0082 152.629 35.2897 152.457 35.5226C152.285 35.736 152.066 35.8428 151.798 35.8428C151.626 35.8428 151.454 35.804 151.282 35.7263C151.11 35.6293 150.891 35.4935 150.623 35.3188C150.146 35.0082 149.697 34.7754 149.276 34.6201C148.875 34.4454 148.388 34.3581 147.815 34.3581C146.516 34.3581 145.503 34.8045 144.777 35.6972C144.07 36.59 143.717 37.8321 143.717 39.4236C143.717 41.015 144.07 42.2475 144.777 43.1208C145.484 43.9748 146.487 44.4017 147.786 44.4017C148.359 44.4017 148.866 44.3144 149.305 44.1397C149.744 43.9651 150.193 43.7322 150.652 43.441C150.862 43.3052 151.072 43.1887 151.282 43.0917C151.493 42.9947 151.684 42.9461 151.856 42.9461C152.123 42.9461 152.343 43.0626 152.515 43.2955C152.687 43.509 152.773 43.7807 152.773 44.1106C152.773 44.3823 152.696 44.6346 152.543 44.8675C152.41 45.081 152.171 45.3042 151.827 45.5371C151.254 45.9253 150.585 46.2261 149.821 46.4396C149.057 46.6531 148.283 46.7598 147.5 46.7598Z" fill="#D29191"/>
<path d="M160.665 32C162.518 32 163.893 32.4755 164.791 33.4265C165.708 34.3775 166.167 35.8234 166.167 37.7642V45.3042C166.167 45.7506 166.042 46.1 165.794 46.3523C165.546 46.5852 165.202 46.7016 164.762 46.7016C164.342 46.7016 164.008 46.5754 163.759 46.3231C163.511 46.0708 163.387 45.7312 163.387 45.3042V44.2271C163.024 45.0422 162.479 45.673 161.754 46.1194C161.047 46.5463 160.216 46.7598 159.26 46.7598C158.343 46.7598 157.503 46.5754 156.739 46.2067C155.994 45.8185 155.401 45.2945 154.962 44.6346C154.522 43.9748 154.303 43.2276 154.303 42.393C154.284 41.345 154.542 40.5298 155.076 39.9476C155.611 39.3459 156.481 38.919 157.684 38.6667C158.888 38.395 160.559 38.2591 162.699 38.2591H163.358V37.4148C163.358 36.328 163.139 35.542 162.699 35.0568C162.26 34.5716 161.553 34.329 160.579 34.329C159.91 34.329 159.279 34.4163 158.687 34.591C158.095 34.7656 157.445 35.018 156.739 35.3479C156.223 35.639 155.86 35.7846 155.65 35.7846C155.363 35.7846 155.124 35.6778 154.933 35.4643C154.761 35.2508 154.675 34.9791 154.675 34.6492C154.675 34.3581 154.752 34.1058 154.905 33.8923C155.077 33.6594 155.344 33.4362 155.707 33.2227C156.376 32.854 157.159 32.5628 158.057 32.3493C158.955 32.1164 159.824 32 160.665 32ZM159.776 44.5764C160.827 44.5764 161.687 44.2174 162.355 43.4993C163.024 42.7618 163.358 41.8205 163.358 40.6754V39.9185H162.842C161.352 39.9185 160.206 39.9864 159.404 40.1223C158.601 40.2581 158.028 40.491 157.684 40.821C157.34 41.1315 157.168 41.5876 157.168 42.1892C157.168 42.8879 157.417 43.4605 157.914 43.9068C158.41 44.3532 159.031 44.5764 159.776 44.5764Z" fill="#D29191"/>
<path d="M179.321 22.6051C179.321 22.6051 179.644 21.8232 180.576 21.3836C183.633 19.9421 189.521 18.8211 195.192 21.1101C201.386 23.6103 204.81 28.8922 205.897 32.0969C206.122 32.761 205.887 33.3276 205.887 33.3276C205.887 33.3276 205.653 33.8941 205.021 34.2124C201.972 35.7481 195.782 37.1497 189.587 34.6495C183.916 32.3605 180.509 27.4881 179.35 24.3453C178.997 23.3869 179.321 22.6051 179.321 22.6051Z" fill="#CEABFB"/>
<path d="M189.609 10.4095C189.609 10.4095 190.314 9.93209 191.338 10.0709C194.693 10.5262 200.236 12.7864 203.698 17.7773C207.48 23.2286 207.399 29.4992 206.522 32.7659C206.34 33.4429 205.829 33.7888 205.829 33.7888C205.829 33.7888 205.318 34.1347 204.613 34.0576C201.211 33.6852 195.26 31.4952 191.478 26.0439C188.015 21.053 187.883 15.1334 188.665 11.8793C188.903 10.8868 189.609 10.4095 189.609 10.4095Z" fill="#E1C8F0"/>
<path d="M231.371 22.6051C231.371 22.6051 231.047 21.8232 230.115 21.3836C227.059 19.9421 221.171 18.8211 215.499 21.1101C209.305 23.6103 205.881 28.8922 204.795 32.0969C204.57 32.761 204.804 33.3276 204.804 33.3276C204.804 33.3276 205.039 33.8941 205.671 34.2124C208.719 35.7481 214.91 37.1497 221.104 34.6495C226.775 32.3605 230.182 27.4881 231.341 24.3453C231.694 23.3869 231.371 22.6051 231.371 22.6051Z" fill="#E1C8F0"/>
<path d="M221.083 10.4094C221.083 10.4094 220.377 9.93203 219.354 10.0709C215.998 10.5261 210.456 12.7863 206.993 17.7772C203.211 23.2285 203.292 29.4992 204.169 32.7658C204.351 33.4428 204.862 33.7887 204.862 33.7887C204.862 33.7887 205.374 34.1347 206.079 34.0575C209.48 33.6851 215.432 31.4951 219.214 26.0438C222.676 21.0529 222.809 15.1334 222.027 11.8792C221.788 10.8868 221.083 10.4094 221.083 10.4094Z" fill="#ECDAF3"/>
<path d="M205.509 5.75042V34.1714C205.509 34.1714 206.131 34.1714 206.67 33.713C209.27 31.5011 212.937 26.3586 212.937 19.7317C212.937 13.6645 209.649 8.6927 207.134 6.43802C206.367 5.75042 205.509 5.75042 205.509 5.75042Z" fill="#F7EBF5"/>
<path d="M205.509 5.75042V34.1714C205.509 34.1714 204.887 34.1714 204.348 33.713C201.748 31.5011 198.081 26.3586 198.081 19.7317C198.081 13.6645 201.369 8.6927 203.884 6.43802C204.651 5.75042 205.509 5.75042 205.509 5.75042Z" fill="#ECDAF3"/>
<path d="M219.144 39.2139C224.251 39.2139 227.238 40.6171 229.822 43.3395C234.173 47.9236 234 52.966 234 58.2376C234 59.6128 232.601 60.6124 230.75 58.9252C227.733 56.1748 224.775 55.4872 220.829 55.4872L201.099 55.258C194.772 52.2784 184.969 46.9565 177.887 45.4023C175.798 44.9439 174.578 41.2767 178.756 40.5891C182.934 39.9015 188.412 42.0652 193.379 44.0271C196.281 45.1731 202.604 44.9439 204.521 44.9439C198.95 44.9439 199.414 39.2139 201.039 39.2139H219.144Z" fill="#FED29B"/>
<path d="M208.526 44.9439H203.188C199.878 44.9439 197.557 44.9439 194.075 44.2563C197.093 45.8607 200.17 48.1528 203.884 48.382H213.169C213.169 48.382 218.508 48.6112 216.883 47.0067C215.555 45.696 210.306 45.0203 208.526 44.9439Z" fill="#FEB55E"/>
<path d="M202.027 41.5059H206.437C206.437 41.5059 206.669 40.8183 206.205 40.1307C205.741 39.4431 205.045 39.2139 205.045 39.2139H199.706C199.474 39.6723 200.634 41.5059 202.027 41.5059Z" fill="#FFDFB7"/>
<path d="M181.833 44.9439L177.131 43.5687C175.738 43.3396 175.042 44.2563 176.202 44.9439L182.993 47.0068C183.338 46.6233 183.178 45.2999 181.833 44.9439Z" fill="#FFDFB7"/>
</svg>
